REM DIRINDEX 1\2,1\3,1\4
REM DIRNAME cjc085,folder01,folder02,folder03
TITLE ""
FILE "Disc1Track01.mp3" MP3
  TRACK 01 AUDIO
    TITLE "0:"
    INDEX 01 00:00:00
  TRACK 02 AUDIO
    TITLE "4:cjc085_0001"
    INDEX 01 00:03:21
  TRACK 03 AUDIO
    TITLE "4:cjc085_0002"
    INDEX 01 00:58:54
  TRACK 04 AUDIO
    TITLE "0:"
    INDEX 01 01:02:36
  TRACK 05 AUDIO
    TITLE "4:cjc085_0003"
    INDEX 01 01:07:41
  TRACK 06 AUDIO
    TITLE "0:"
    INDEX 01 01:11:39
  TRACK 07 AUDIO
    TITLE "4:cjc085_0004"
    INDEX 01 01:12:11
  TRACK 08 AUDIO
    TITLE "2:cjc085_0005"
    INDEX 01 01:13:18
  TRACK 09 AUDIO
    TITLE "0:"
    INDEX 01 01:14:59
  TRACK 10 AUDIO
    TITLE "3:cjc085_0006"
    INDEX 01 01:15:17
  TRACK 11 AUDIO
    TITLE "0:"
    INDEX 01 01:18:33
  TRACK 12 AUDIO
    TITLE "4:cjc085_0007"
    INDEX 01 01:18:60
  TRACK 13 AUDIO
    TITLE "2:cjc085_0008"
    INDEX 01 01:19:38
  TRACK 14 AUDIO
    TITLE "0:"
    INDEX 01 01:22:03
  TRACK 15 AUDIO
    TITLE "3:cjc085_0009"
    INDEX 01 01:22:27
  TRACK 16 AUDIO
    TITLE "0:"
    INDEX 01 01:25:00
  TRACK 17 AUDIO
    TITLE "4:cjc085_0010"
    INDEX 01 01:25:29
  TRACK 18 AUDIO
    TITLE "2:cjc085_0011"
    INDEX 01 01:26:34
  TRACK 19 AUDIO
    TITLE "0:"
    INDEX 01 01:29:54
  TRACK 20 AUDIO
    TITLE "3:cjc085_0012"
    INDEX 01 01:30:17
  TRACK 21 AUDIO
    TITLE "0:"
    INDEX 01 01:33:31
  TRACK 22 AUDIO
    TITLE "4:cjc085_0013"
    INDEX 01 01:33:60
  TRACK 23 AUDIO
    TITLE "2:cjc085_0014"
    INDEX 01 01:34:55
  TRACK 24 AUDIO
    TITLE "0:"
    INDEX 01 01:37:46
  TRACK 25 AUDIO
    TITLE "3:cjc085_0015"
    INDEX 01 01:37:60
  TRACK 26 AUDIO
    TITLE "0:"
    INDEX 01 01:40:54
  TRACK 27 AUDIO
    TITLE "4:cjc085_0016"
    INDEX 01 01:41:16
  TRACK 28 AUDIO
    TITLE "2:cjc085_0017"
    INDEX 01 01:42:08
  TRACK 29 AUDIO
    TITLE "0:"
    INDEX 01 01:45:49
  TRACK 30 AUDIO
    TITLE "3:cjc085_0018"
    INDEX 01 01:45:65
  TRACK 31 AUDIO
    TITLE "0:"
    INDEX 01 01:50:07
  TRACK 32 AUDIO
    TITLE "4:cjc085_0019"
    INDEX 01 01:50:13
  TRACK 33 AUDIO
    TITLE "2:cjc085_0020"
    INDEX 01 01:51:44
  TRACK 34 AUDIO
    TITLE "0:"
    INDEX 01 01:54:68
  TRACK 35 AUDIO
    TITLE "3:cjc085_0021"
    INDEX 01 01:55:30
  TRACK 36 AUDIO
    TITLE "0:"
    INDEX 01 01:59:57
  TRACK 37 AUDIO
    TITLE "4:cjc085_0022"
    INDEX 01 01:59:67
  TRACK 38 AUDIO
    TITLE "2:cjc085_0023"
    INDEX 01 02:00:74
  TRACK 39 AUDIO
    TITLE "0:"
    INDEX 01 02:04:10
  TRACK 40 AUDIO
    TITLE "3:cjc085_0024"
    INDEX 01 02:04:41
  TRACK 41 AUDIO
    TITLE "0:"
    INDEX 01 02:08:35
  TRACK 42 AUDIO
    TITLE "4:cjc085_0025"
    INDEX 01 02:09:17
  TRACK 43 AUDIO
    TITLE "2:cjc085_0026"
    INDEX 01 02:10:26
  TRACK 44 AUDIO
    TITLE "0:"
    INDEX 01 02:14:14
  TRACK 45 AUDIO
    TITLE "3:cjc085_0027"
    INDEX 01 02:14:39
  TRACK 46 AUDIO
    TITLE "0:"
    INDEX 01 02:19:15
  TRACK 47 AUDIO
    TITLE "4:cjc085_0028"
    INDEX 01 02:19:37
  TRACK 48 AUDIO
    TITLE "2:cjc085_0029"
    INDEX 01 02:20:48
  TRACK 49 AUDIO
    TITLE "0:"
    INDEX 01 02:23:48
  TRACK 50 AUDIO
    TITLE "3:cjc085_0030"
    INDEX 01 02:23:68
  TRACK 51 AUDIO
    TITLE "0:"
    INDEX 01 02:27:36
  TRACK 52 AUDIO
    TITLE "4:cjc085_0031"
    INDEX 01 02:27:67
  TRACK 53 AUDIO
    TITLE "2:cjc085_0032"
    INDEX 01 02:29:11
  TRACK 54 AUDIO
    TITLE "0:"
    INDEX 01 02:31:44
  TRACK 55 AUDIO
    TITLE "3:cjc085_0033"
    INDEX 01 02:32:08
  TRACK 56 AUDIO
    TITLE "0:"
    INDEX 01 02:35:18
  TRACK 57 AUDIO
    TITLE "4:cjc085_0034"
    INDEX 01 02:35:71
  TRACK 58 AUDIO
    TITLE "2:cjc085_0035"
    INDEX 01 02:37:42
  TRACK 59 AUDIO
    TITLE "0:"
    INDEX 01 02:39:73
  TRACK 60 AUDIO
    TITLE "3:cjc085_0036"
    INDEX 01 02:40:21
  TRACK 61 AUDIO
    TITLE "0:"
    INDEX 01 02:43:08
  TRACK 62 AUDIO
    TITLE "4:cjc085_0037"
    INDEX 01 02:43:55
  TRACK 63 AUDIO
    TITLE "2:cjc085_0038"
    INDEX 01 02:45:01
  TRACK 64 AUDIO
    TITLE "0:"
    INDEX 01 02:50:68
  TRACK 65 AUDIO
    TITLE "3:cjc085_0039"
    INDEX 01 02:50:74
  TRACK 66 AUDIO
    TITLE "0:"
    INDEX 01 02:56:08
  TRACK 67 AUDIO
    TITLE "4:cjc085_0040"
    INDEX 01 02:56:34
  TRACK 68 AUDIO
    TITLE "2:cjc085_0041"
    INDEX 01 02:57:74
  TRACK 69 AUDIO
    TITLE "0:"
    INDEX 01 03:01:23
  TRACK 70 AUDIO
    TITLE "3:cjc085_0042"
    INDEX 01 03:01:60
  TRACK 71 AUDIO
    TITLE "0:"
    INDEX 01 03:05:62
  TRACK 72 AUDIO
    TITLE "4:cjc085_0043"
    INDEX 01 03:06:28
  TRACK 73 AUDIO
    TITLE "2:cjc085_0044"
    INDEX 01 03:07:57
  TRACK 74 AUDIO
    TITLE "0:"
    INDEX 01 03:12:00
  TRACK 75 AUDIO
    TITLE "3:cjc085_0045"
    INDEX 01 03:12:33
  TRACK 76 AUDIO
    TITLE "0:"
    INDEX 01 03:17:14
  TRACK 77 AUDIO
    TITLE "4:cjc085_0046"
    INDEX 01 03:17:22
  TRACK 78 AUDIO
    TITLE "2:cjc085_0047"
    INDEX 01 03:18:47
  TRACK 79 AUDIO
    TITLE "0:"
    INDEX 01 03:21:44
  TRACK 80 AUDIO
    TITLE "3:cjc085_0048"
    INDEX 01 03:21:63
  TRACK 81 AUDIO
    TITLE "0:"
    INDEX 01 03:24:32
  TRACK 82 AUDIO
    TITLE "4:cjc085_0049"
    INDEX 01 03:25:14
  TRACK 83 AUDIO
    TITLE "2:cjc085_0050"
    INDEX 01 03:26:47
  TRACK 84 AUDIO
    TITLE "0:"
    INDEX 01 03:30:60
  TRACK 85 AUDIO
    TITLE "3:cjc085_0051"
    INDEX 01 03:31:13
  TRACK 86 AUDIO
    TITLE "0:"
    INDEX 01 03:35:20
  TRACK 87 AUDIO
    TITLE "4:cjc085_0052"
    INDEX 01 03:35:59
  TRACK 88 AUDIO
    TITLE "2:cjc085_0053"
    INDEX 01 03:37:17
  TRACK 89 AUDIO
    TITLE "0:"
    INDEX 01 03:42:20
  TRACK 90 AUDIO
    TITLE "3:cjc085_0054"
    INDEX 01 03:42:44
  TRACK 91 AUDIO
    TITLE "0:"
    INDEX 01 03:47:35
  TRACK 92 AUDIO
    TITLE "4:cjc085_0055"
    INDEX 01 03:47:72
  TRACK 93 AUDIO
    TITLE "2:cjc085_0056"
    INDEX 01 03:49:56
  TRACK 94 AUDIO
    TITLE "0:"
    INDEX 01 03:52:62
  TRACK 95 AUDIO
    TITLE "3:cjc085_0057"
    INDEX 01 03:53:16
  TRACK 96 AUDIO
    TITLE "0:"
    INDEX 01 03:56:44
  TRACK 97 AUDIO
    TITLE "4:cjc085_0058"
    INDEX 01 03:56:65
  TRACK 98 AUDIO
    TITLE "2:cjc085_0059"
    INDEX 01 03:58:31
  TRACK 99 AUDIO
    TITLE "0:"
    INDEX 01 04:02:37
  TRACK 100 AUDIO
    TITLE "3:cjc085_0060"
    INDEX 01 04:02:58
  TRACK 101 AUDIO
    TITLE "0:"
    INDEX 01 04:06:62
  TRACK 102 AUDIO
    TITLE "4:cjc085_0061"
    INDEX 01 04:07:44
  TRACK 103 AUDIO
    TITLE "2:cjc085_0062"
    INDEX 01 04:09:05
  TRACK 104 AUDIO
    TITLE "0:"
    INDEX 01 04:14:12
  TRACK 105 AUDIO
    TITLE "3:cjc085_0063"
    INDEX 01 04:14:24
  TRACK 106 AUDIO
    TITLE "0:"
    INDEX 01 04:19:23
  TRACK 107 AUDIO
    TITLE "4:cjc085_0064"
    INDEX 01 04:19:55
  TRACK 108 AUDIO
    TITLE "2:cjc085_0065"
    INDEX 01 04:21:61
  TRACK 109 AUDIO
    TITLE "0:"
    INDEX 01 04:26:12
  TRACK 110 AUDIO
    TITLE "3:cjc085_0066"
    INDEX 01 04:26:49
  TRACK 111 AUDIO
    TITLE "0:"
    INDEX 01 04:30:62
  TRACK 112 AUDIO
    TITLE "4:cjc085_0067"
    INDEX 01 04:31:40
  TRACK 113 AUDIO
    TITLE "2:cjc085_0068"
    INDEX 01 04:33:00
  TRACK 114 AUDIO
    TITLE "0:"
    INDEX 01 04:36:26
  TRACK 115 AUDIO
    TITLE "3:cjc085_0069"
    INDEX 01 04:36:69
  TRACK 116 AUDIO
    TITLE "0:"
    INDEX 01 04:39:46
  TRACK 117 AUDIO
    TITLE "4:cjc085_0070"
    INDEX 01 04:39:71
  TRACK 118 AUDIO
    TITLE "2:cjc085_0071"
    INDEX 01 04:41:66
  TRACK 119 AUDIO
    TITLE "0:"
    INDEX 01 04:48:05
  TRACK 120 AUDIO
    TITLE "3:cjc085_0072"
    INDEX 01 04:48:45
  TRACK 121 AUDIO
    TITLE "0:"
    INDEX 01 04:53:32
  TRACK 122 AUDIO
    TITLE "4:cjc085_0073"
    INDEX 01 04:53:52
  TRACK 123 AUDIO
    TITLE "2:cjc085_0074"
    INDEX 01 04:55:17
  TRACK 124 AUDIO
    TITLE "0:"
    INDEX 01 05:00:34
  TRACK 125 AUDIO
    TITLE "3:cjc085_0075"
    INDEX 01 05:00:54
  TRACK 126 AUDIO
    TITLE "0:"
    INDEX 01 05:05:02
  TRACK 127 AUDIO
    TITLE "4:cjc085_0076"
    INDEX 01 05:06:11
  TRACK 128 AUDIO
    TITLE "2:cjc085_0077"
    INDEX 01 05:07:58
  TRACK 129 AUDIO
    TITLE "0:"
    INDEX 01 05:11:53
  TRACK 130 AUDIO
    TITLE "3:cjc085_0078"
    INDEX 01 05:12:16
  TRACK 131 AUDIO
    TITLE "0:"
    INDEX 01 05:16:23
  TRACK 132 AUDIO
    TITLE "4:cjc085_0079"
    INDEX 01 05:17:01
  TRACK 133 AUDIO
    TITLE "2:cjc085_0080"
    INDEX 01 05:18:57
  TRACK 134 AUDIO
    TITLE "0:"
    INDEX 01 05:22:24
  TRACK 135 AUDIO
    TITLE "3:cjc085_0081"
    INDEX 01 05:22:34
  TRACK 136 AUDIO
    TITLE "0:"
    INDEX 01 05:26:28
  TRACK 137 AUDIO
    TITLE "4:cjc085_0082"
    INDEX 01 05:27:07
  TRACK 138 AUDIO
    TITLE "2:cjc085_0083"
    INDEX 01 05:28:60
  TRACK 139 AUDIO
    TITLE "0:"
    INDEX 01 05:31:29
  TRACK 140 AUDIO
    TITLE "3:cjc085_0084"
    INDEX 01 05:31:48
  TRACK 141 AUDIO
    TITLE "0:"
    INDEX 01 05:35:50
  TRACK 142 AUDIO
    TITLE "4:cjc085_0085"
    INDEX 01 05:36:16
  TRACK 143 AUDIO
    TITLE "2:cjc085_0086"
    INDEX 01 05:37:70
  TRACK 144 AUDIO
    TITLE "0:"
    INDEX 01 05:41:04
  TRACK 145 AUDIO
    TITLE "3:cjc085_0087"
    INDEX 01 05:41:58
  TRACK 146 AUDIO
    TITLE "0:"
    INDEX 01 05:46:18
  TRACK 147 AUDIO
    TITLE "4:cjc085_0088"
    INDEX 01 05:46:48
  TRACK 148 AUDIO
    TITLE "2:cjc085_0089"
    INDEX 01 05:48:12
  TRACK 149 AUDIO
    TITLE "0:"
    INDEX 01 05:53:64
  TRACK 150 AUDIO
    TITLE "3:cjc085_0090"
    INDEX 01 05:54:08
  TRACK 151 AUDIO
    TITLE "0:"
    INDEX 01 05:59:05
  TRACK 152 AUDIO
    TITLE "4:cjc085_0091"
    INDEX 01 05:59:41
  TRACK 153 AUDIO
    TITLE "2:cjc085_0092"
    INDEX 01 06:01:12
  TRACK 154 AUDIO
    TITLE "0:"
    INDEX 01 06:05:71
  TRACK 155 AUDIO
    TITLE "3:cjc085_0093"
    INDEX 01 06:06:11
  TRACK 156 AUDIO
    TITLE "0:"
    INDEX 01 06:11:13
